HIERARCHY
ROOT Hips
{
  OFFSET -331.093 83.8371 -317.828
  CHANNELS 6 Xposition Yposition Zposition Zrotation Xrotation Yrotation
  JOINT LeftUpLeg
  {
    OFFSET 8.64259 1.95398 -2.38835
    CHANNELS 3 Zrotation Xrotation Yrotation
    JOINT LeftLeg
    {
      OFFSET 43.7702 0 0
      CHANNELS 3 Zrotation Xrotation Yrotation
      JOINT LeftFoot
      {
        OFFSET 40.6238 0 0
        CHANNELS 3 Zrotation Xrotation Yrotation
        JOINT LeftToeBase
        {
          OFFSET 12.7242 0 0
          CHANNELS 3 Zrotation Xrotation Yrotation
          End Site
          {
            OFFSET 0 0 0
          }
        }
      }
    }
  }
  JOINT RightUpLeg
  {
    OFFSET -8.2249 1.95398 -2.59336
    CHANNELS 3 Zrotation Xrotation Yrotation
    JOINT RightLeg
    {
      OFFSET 43.5653 0 0
      CHANNELS 3 Zrotation Xrotation Yrotation
      JOINT RightFoot
      {
        OFFSET 40.6238 0 0
        CHANNELS 3 Zrotation Xrotation Yrotation
        JOINT RightToeBase
        {
          OFFSET 12.7242 0 0
          CHANNELS 3 Zrotation Xrotation Yrotation
          End Site
          {
            OFFSET 0 0 0
          }
        }
      }
    }
  }
  JOINT Spine
  {
    OFFSET 0.165834 0.87714 6.61349
    CHANNELS 3 Zrotation Xrotation Yrotation
    JOINT Spine1
    {
      OFFSET 7.38963 1.71661e-005 0
      CHANNELS 3 Zrotation Xrotation Yrotation
      JOINT Spine2
      {
        OFFSET 11.9445 1.14441e-005 0
        CHANNELS 3 Zrotation Xrotation Yrotation
        JOINT Spine3
        {
          OFFSET 14.7254 4.19617e-005 0
          CHANNELS 3 Zrotation Xrotation Yrotation
          JOINT Spine4
          {
            OFFSET 10.9679 0 0
            CHANNELS 3 Zrotation Xrotation Yrotation
            JOINT RightShoulder
            {
              OFFSET 2.46616 -1.6653 3.69651
              CHANNELS 3 Zrotation Xrotation Yrotation
              JOINT RightArm
              {
                OFFSET 13.0012 0 0
                CHANNELS 3 Zrotation Xrotation Yrotation
                JOINT RightForeArm
                {
                  OFFSET 28.7848 1.62311e-005 0
                  CHANNELS 3 Zrotation Xrotation Yrotation
                  JOINT RightHand
                  {
                    OFFSET 26.5688 1.62095e-005 0
                    CHANNELS 3 Zrotation Xrotation Yrotation
                    End Site
                    {
                      OFFSET 0 0 0
                    }
                  }
                }
              }
            }
            JOINT LeftShoulder
            {
              OFFSET 2.38034 -1.29275 -3.7523
              CHANNELS 3 Zrotation Xrotation Yrotation
              JOINT LeftArm
              {
                OFFSET 16.3182 6.07031e-005 0
                CHANNELS 3 Zrotation Xrotation Yrotation
                JOINT LeftForeArm
                {
                  OFFSET 27.0901 0 0
                  CHANNELS 3 Zrotation Xrotation Yrotation
                  JOINT LeftHand
                  {
                    OFFSET 24.5451 1.51738e-005 0
                    CHANNELS 3 Zrotation Xrotation Yrotation
                    End Site
                    {
                      OFFSET 0 0 0
                    }
                  }
                }
              }
            }
            JOINT Neck
            {
              OFFSET 5.0226 -0.0266342 0
              CHANNELS 3 Zrotation Xrotation Yrotation
              JOINT Head
              {
                OFFSET 6.69364 2.86102e-005 0
                CHANNELS 3 Zrotation Xrotation Yrotation
                End Site
                {
                  OFFSET 0 0 0
                }
              }
            }
          }
        }
      }
    }
  }
}
MOTION
Frames:	7
Frame Time:	0.0416667
-66.3983 99.3349 21.6064 -76.9178 -86.4251 -77.2635 -175.462 4.65022 90.207 -8.37693 3.87116 -0.56748 61.3219 1.29227 2.59394 28.0012 -0.738781 -0.79677 171.436 5.25001 89.6899 -11.0258 -5.63021 -1.2342 63.8864 -1.61015 -0.903145 28.7106 -0.322501 -2.75506 -0.0436421 7.01529 -89.9822 12.8433 -0.078052 0.0450244 1.17237 -0.0759918 0.0484045 -21.3628 -0.0879754 0.0194864 -1.35016 -0.0879849 0.0194666 90.332 -40.0297 -102.445 33.9244 -15.4861 3.15545 -5.38571 -7.39353 -42.2967 -7.25043 -0.510034 2.75191 -97.8526 -48.8144 67.2458 -24.4265 10.3275 4.86981 5.70059 13.3391 -35.5534 11.7534 0.899897 3.61115 6.48676 0.328128 2.97289 -4.5143 -0.238772 -0.915615 
-66.3659 99.3065 21.6881 -64.0112 -86.2392 -63.5509 -175.342 6.1631 90.9355 -9.69403 4.3492 -0.516777 62.2777 1.85445 3.19314 27.3739 -1.33319 -1.51042 172.07 5.12927 90.5695 -9.65141 -4.96944 -1.16631 63.3781 -1.60818 -0.894466 28.4876 -0.299334 -2.63476 -0.0352261 6.92428 -90.0707 13.0253 -0.103887 -0.128785 1.35432 -0.109453 -0.124093 -21.1808 -0.0603833 -0.154052 -1.16815 -0.0603781 -0.154056 90.4206 -40.0363 -102.291 33.7203 -16.0689 2.42424 -4.72684 -8.7796 -40.4692 -8.35493 -0.541166 2.02294 -97.9659 -48.8624 67.0956 -24.1665 10.5295 4.58117 5.59822 13.3129 -35.422 11.9392 0.856527 3.1628 5.96856 0.405351 2.64079 -4.17137 -0.0906837 -0.809438 
-66.3672 99.3057 21.7699 -60.4057 -86.0761 -59.5036 -175.158 6.89215 91.4299 -10.5121 4.8968 -0.609226 62.3967 1.9101 3.69673 27.7368 -1.33747 -2.85722 172.378 5.01413 91.0717 -8.89634 -4.65978 -1.17443 62.959 -1.58708 -0.873675 28.745 -0.316804 -2.68654 -0.0392492 6.90044 -90.1423 13.0727 -0.146282 -0.266724 1.40171 -0.157879 -0.260028 -21.1332 -0.0593642 -0.298353 -1.12059 -0.0593607 -0.298355 90.3562 -39.9896 -102.415 33.3586 -16.2863 2.07026 -4.14087 -8.75599 -39.7702 -8.99783 -0.559769 1.74896 -98.0231 -49.0553 67.0788 -24.0227 10.4839 4.42188 5.48998 13.1039 -35.4647 11.8772 0.878685 3.37168 5.84671 0.498414 2.90457 -4.03165 -0.0451854 -0.964105 
-66.3753 99.3322 21.7867 -62.8083 -86.022 -61.9089 -175.15 6.7604 91.4172 -10.5531 4.6953 -0.575179 62.4557 1.82973 3.42888 27.4946 -1.40083 -2.30558 172.441 4.93497 91.0878 -8.99983 -4.7032 -1.26348 63.0724 -1.63891 -0.902353 28.3907 -0.27494 -2.44992 -0.0359779 6.92016 -90.1565 13.0332 -0.146574 -0.295082 1.36228 -0.159424 -0.288348 -21.1726 -0.0511139 -0.325491 -1.15998 -0.0511174 -0.325496 90.3366 -39.9919 -102.448 33.3174 -16.1491 2.05799 -3.95187 -8.6045 -39.6307 -9.05697 -0.548438 1.54575 -98.1391 -49.1327 66.9359 -23.9074 10.6728 4.55767 5.65049 13.1226 -35.9273 12.106 0.910105 3.49507 5.49583 0.626721 2.93311 -3.53661 0.0811512 -0.986359 
-66.4054 99.331 21.8226 -62.7166 -85.9005 -61.7647 -175.116 6.75901 91.4732 -10.5137 4.67973 -0.577791 62.5552 1.89682 3.40192 27.408 -1.35997 -1.77796 172.473 5.21899 91.1766 -9.32035 -4.79222 -1.27419 62.9661 -1.57499 -0.867303 28.6189 -0.302312 -2.615 -0.030049 6.92655 -90.1739 13.0204 -0.143156 -0.330287 1.34946 -0.15756 -0.323679 -21.1854 -0.0372771 -0.358045 -1.17272 -0.037273 -0.358049 90.5494 -39.9247 -102.1 33.5257 -15.8268 1.84756 -4.33248 -9.07881 -39.5391 -8.96323 -0.57853 2.04208 -98.2641 -49.1946 66.7749 -23.6955 10.639 4.58097 5.85503 13.2672 -36.133 11.7058 0.903166 3.6646 5.46277 0.531482 2.43009 -3.76248 0.0676129 0.0730679 
-66.4408 99.3138 21.8921 -63.4338 -85.736 -62.4907 -175.053 6.82271 91.5116 -10.7308 4.43645 -0.625125 62.8789 1.90775 3.11913 27.0375 -1.6074 -1.69433 172.479 5.07994 91.2045 -9.01627 -4.72553 -1.27203 63.0788 -1.66202 -0.913253 28.2954 -0.241011 -2.18601 -0.0458973 6.92309 -90.1743 13.0248 -0.174841 -0.327357 1.3538 -0.189073 -0.319354 -21.181 -0.06837 -0.364766 -1.16839 -0.068371 -0.364769 90.3314 -40.0735 -102.433 33.5393 -15.6728 2.05423 -4.1671 -8.73097 -39.7142 -8.44067 -0.551422 2.12673 -98.0212 -49.1729 67.1222 -23.7643 10.5909 4.62513 5.81431 13.1313 -36.1168 11.6219 0.922607 3.86778 5.39839 0.778922 2.75728 -3.92134 0.256657 -0.253451 
-66.4354 99.3088 21.93 -62.5071 -85.6905 -61.6943 -175.134 6.67122 91.361 -10.2887 4.39127 -0.604457 62.467 1.95184 3.4785 27.9038 -1.13487 -2.41702 172.385 5.33038 91.0353 -9.50232 -5.13183 -1.22903 63.0597 -1.56636 -0.86568 29.0368 -0.355859 -2.92514 -0.0521386 6.91931 -90.1573 13.0368 -0.179015 -0.292556 1.36589 -0.191723 -0.2844 -21.169 -0.0828235 -0.332833 -1.15639 -0.0828149 -0.332843 90.3912 -40.3364 -102.256 33.4041 -15.8224 2.02297 -4.40492 -9.04642 -39.4953 -8.94893 -0.573622 1.98072 -98.0086 -49.0423 67.0957 -23.6493 10.7104 4.66595 5.54861 12.9962 -35.7958 11.4572 0.845187 3.33476 5.27119 0.822421 2.58902 -4.00568 0.328036 0.0815048 
